HIERARCHY
ROOT Hips
{
  OFFSET 49.8666 86.5988 7.99404
  CHANNELS 6 Xposition Yposition Zposition Zrotation Xrotation Yrotation
  JOINT spine
  {
    OFFSET 0 6.84637 0.3937
    CHANNELS 3 Zrotation Xrotation Yrotation
    JOINT spine1
    {
      OFFSET 0 9.49621 0
      CHANNELS 3 Zrotation Xrotation Yrotation
      JOINT spine2
      {
        OFFSET 0 9.09909 0
        CHANNELS 3 Zrotation Xrotation Yrotation
        JOINT Neck
        {
          OFFSET 0 23.3612 1.11378
          CHANNELS 3 Zrotation Xrotation Yrotation
          JOINT Head
          {
            OFFSET 0 7.05802 0
            CHANNELS 3 Zrotation Xrotation Yrotation
            End Site
            {
              OFFSET 0 17.0844 -5.63419
            }
          }
        }
        JOINT RightShoulder
        {
          OFFSET -3.83136 9.82631 -0.533491
          CHANNELS 3 Zrotation Xrotation Yrotation
          JOINT RightArm
          {
            OFFSET 0 12.8881 0
            CHANNELS 3 Zrotation Xrotation Yrotation
            JOINT RightArmRoll
            {
              OFFSET 0 6.50617 0
              CHANNELS 3 Zrotation Xrotation Yrotation
              JOINT RightForeArm
              {
                OFFSET 0 18.9501 0
                CHANNELS 3 Zrotation Xrotation Yrotation
                JOINT RightForeArmRoll
                {
                  OFFSET 0 7.30093 0
                  CHANNELS 3 Zrotation Xrotation Yrotation
                  JOINT RightHand
                  {
                    OFFSET 0 14.6514 0
                    CHANNELS 3 Zrotation Xrotation Yrotation
                    End Site
                    {
                      OFFSET 0 0 0
                    }
                  }
                }
              }
            }
          }
        }
        JOINT LeftShoulder
        {
          OFFSET 3.83136 9.82631 -0.533491
          CHANNELS 3 Zrotation Xrotation Yrotation
          JOINT LeftArm
          {
            OFFSET 0 12.8881 0
            CHANNELS 3 Zrotation Xrotation Yrotation
            JOINT LeftArmRoll
            {
              OFFSET 0 6.50617 0
              CHANNELS 3 Zrotation Xrotation Yrotation
              JOINT LeftForeArm
              {
                OFFSET 0 18.9501 0
                CHANNELS 3 Zrotation Xrotation Yrotation
                JOINT LeftForeArmRoll
                {
                  OFFSET 0 7.30093 0
                  CHANNELS 3 Zrotation Xrotation Yrotation
                  JOINT LeftHand
                  {
                    OFFSET 0 14.6514 0
                    CHANNELS 3 Zrotation Xrotation Yrotation
                    End Site
                    {
                      OFFSET 0 0 0
                    }
                  }
                }
              }
            }
          }
        }
      }
    }
  }
  JOINT RightUpLeg
  {
    OFFSET -6.06837 -1.11278 -0.933477
    CHANNELS 3 Zrotation Xrotation Yrotation
    JOINT RightUpLegRoll
    {
      OFFSET 0 17.1796 0
      CHANNELS 3 Zrotation Xrotation Yrotation
      JOINT RightLeg
      {
        OFFSET 0 -21.2743 0
        CHANNELS 3 Zrotation Xrotation Yrotation
        JOINT RightLegRoll
        {
          OFFSET 0 21.3439 0
          CHANNELS 3 Zrotation Xrotation Yrotation
          JOINT RightFoot
          {
            OFFSET 0 17.7652 0
            CHANNELS 3 Zrotation Xrotation Yrotation
            JOINT RightToeBase
            {
              OFFSET 0 14.8508 0
              CHANNELS 3 Zrotation Xrotation Yrotation
              End Site
              {
                OFFSET 0.0062947 7.19213 -0.829005
              }
            }
          }
        }
      }
    }
  }
  JOINT LeftUpLeg
  {
    OFFSET 6.06837 -1.11278 -0.933477
    CHANNELS 3 Zrotation Xrotation Yrotation
    JOINT LeftUpLegRoll
    {
      OFFSET 0 17.1797 0
      CHANNELS 3 Zrotation Xrotation Yrotation
      JOINT LeftLeg
      {
        OFFSET 0 21.2742 0
        CHANNELS 3 Zrotation Xrotation Yrotation
        JOINT LeftLegRoll
        {
          OFFSET 0 21.5412 0
          CHANNELS 3 Zrotation Xrotation Yrotation
          JOINT LeftFoot
          {
            OFFSET 0 17.5679 0
            CHANNELS 3 Zrotation Xrotation Yrotation
            JOINT LeftToeBase
            {
              OFFSET 0 14.8508 0
              CHANNELS 3 Zrotation Xrotation Yrotation
              End Site
              {
                OFFSET -0.0282102 7.19214 -0.829004
              }
            }
          }
        }
      }
    }
  }
}
MOTION
Frames: 8
Frame Time: 0.00208333
50.5846 86.5654 6.26736 0.53045 -3.11956 -1.77061 1.49753 -1.74148 1.26684 3.01156 0.560524 2.40001 2.9844 2.2037 2.35049 -15.6335 7.18444 1.91863 8.76367 8.62893 -1.91837 51.4553 -6.71551 -3.81724 104.42 16.3902 20.537 7.8213e-006 -4.67204e-007 -5.94915e-006 14.8448 0.115636 -0.229533 -1.32091e-005 -3.92052e-007 -3.01354 8.02894 -4.95146 0.697704 -76.3545 -8.14775 5.46085 -92.8008 24.669 -27.9784 6.36111e-015 1.95589e-006 -1.27222e-014 -13.775 2.05174 -0.434636 1.05402e-005 -1.39984e-006 3.01009 -8.0289 -4.95146 -0.697691 178.86 13.7855 -1.63254 180 7.01508e-015 178.763 176.279 24.5155 -179.717 -1.24894e-006 -4.48345e-006 0.668719 -23.1846 70.8995 22.4459 8.13649 25.2327 -3.48774 -177.041 11.1464 -0.121353 4.54188e-006 -4.6773e-006 -0.847211 -0.994992 -24.4976 0.800118 5.35018e-007 -4.00495e-006 -0.452413 20.2595 73.3639 -24.7893 -8.1365 25.2327 3.48774 
50.5794 86.5648 6.26345 0.530726 -3.11542 -1.76875 1.49751 -1.74126 1.26651 3.01164 0.558632 2.39825 2.98449 2.20181 2.34873 -15.6349 7.18964 1.93417 8.7686 8.61328 -1.90227 51.4514 -6.71148 -3.81343 104.429 16.3923 20.5422 7.8213e-006 -4.67204e-007 -5.94915e-006 14.8399 0.115639 -0.230739 -1.32091e-005 -3.92052e-007 -3.01354 8.02894 -4.95146 0.697704 -76.3615 -8.15215 5.46292 -92.7894 24.6672 -27.9756 7.95139e-015 1.95589e-006 -6.36111e-015 -13.7798 2.05885 -0.432922 1.05402e-005 -1.39984e-006 3.01009 -8.0289 -4.95146 -0.697691 178.861 13.7892 -1.63505 180 7.01508e-015 178.763 176.281 24.5168 -179.718 -1.24894e-006 -4.48345e-006 0.66872 -23.1865 70.9008 22.4494 8.13649 25.2327 -3.48774 -177.041 11.1519 -0.120523 4.54188e-006 -4.6773e-006 -0.847212 -0.994021 -24.4967 0.800535 5.35018e-007 -4.00495e-006 -0.452413 20.2561 73.3617 -24.7866 -8.1365 25.2327 3.48774 
50.5811 86.5652 6.26667 0.531018 -3.11127 -1.76691 1.49747 -1.74098 1.26617 3.01168 0.556713 2.39644 2.98454 2.19989 2.34692 -15.6363 7.19534 1.95007 8.77388 8.59674 -1.8858 51.4475 -6.70736 -3.80952 104.438 16.3945 20.5476 7.8213e-006 -4.67204e-007 -5.94915e-006 14.8349 0.115641 -0.23196 -1.32091e-005 -3.92052e-007 -3.01354 8.02894 -4.95146 0.697704 -76.3687 -8.1566 5.46502 -92.7775 24.6653 -27.973 9.54166e-015 1.95589e-006 -6.36111e-015 -13.7846 2.06619 -0.431141 1.05402e-005 -1.39984e-006 3.01009 -8.0289 -4.95146 -0.697691 178.862 13.7929 -1.63754 180 7.01508e-015 178.763 176.283 24.518 -179.719 -1.24894e-006 -4.48345e-006 0.668714 -23.1886 70.9021 22.453 8.13649 25.2327 -3.48774 -177.04 11.1575 -0.119718 4.54188e-006 -4.6773e-006 -0.847213 -0.993073 -24.4957 0.800944 5.35018e-007 -4.00495e-006 -0.452413 20.2526 73.3595 -24.7838 -8.1365 25.2327 3.48774 
50.5808 86.5648 6.27404 0.531321 -3.1071 -1.76508 1.49743 -1.74066 1.26583 3.0117 0.554776 2.3946 2.98458 2.19795 2.34509 -15.6377 7.20138 1.96622 8.77942 8.57958 -1.86909 51.4436 -6.70318 -3.80556 104.446 16.3967 20.5532 7.8213e-006 -4.67204e-007 -5.94915e-006 14.8297 0.115644 -0.233192 -1.32091e-005 -3.92052e-007 -3.01354 8.02894 -4.95146 0.697704 -76.376 -8.16111 5.46715 -92.7655 24.6634 -27.9704 -2.06736e-014 1.95589e-006 -1.59028e-014 -13.7894 2.07367 -0.429312 1.05402e-005 -1.39984e-006 3.01009 -8.0289 -4.95146 -0.697691 178.863 13.7966 -1.64003 180 7.01508e-015 178.763 176.285 24.519 -179.719 -1.24894e-006 -4.48345e-006 0.668704 -23.1907 70.9033 22.4566 8.13649 25.2327 -3.48774 -177.04 11.1631 -0.11893 4.54188e-006 -4.6773e-006 -0.847215 -0.992139 -24.4946 0.801348 5.35018e-007 -4.00495e-006 -0.452413 20.2492 73.3571 -24.781 -8.1365 25.2327 3.48774 
50.5763 86.5633 6.27138 0.531632 -3.10293 -1.76325 1.49738 -1.74033 1.26549 3.01171 0.552829 2.39275 2.9846 2.19601 2.34324 -15.6392 7.20762 1.98251 8.7851 8.56207 -1.85223 51.4397 -6.69896 -3.80155 104.455 16.3989 20.5588 7.8213e-006 -4.67204e-007 -5.94915e-006 14.8245 0.115647 -0.23443 -1.32091e-005 -3.92052e-007 -3.01354 8.02894 -4.95146 0.697704 -76.3833 -8.16564 5.46928 -92.7533 24.6616 -27.9678 1.43125e-014 1.95589e-006 -9.54166e-015 -13.7942 2.08124 -0.427457 1.05402e-005 -1.39984e-006 3.01009 -8.0289 -4.95146 -0.697691 178.864 13.8003 -1.64251 180 7.01508e-015 178.763 176.287 24.5201 -179.72 -1.24894e-006 -4.48345e-006 0.668691 -23.1928 70.9046 22.4603 8.13649 25.2327 -3.48774 -177.039 11.1687 -0.118151 4.54188e-006 -4.6773e-006 -0.847216 -0.991215 -24.4935 0.801749 5.35018e-007 -4.00495e-006 -0.452413 20.2457 73.3548 -24.7782 -8.1365 25.2327 3.48774 
50.5822 86.5629 6.27049 0.531944 -3.09876 -1.76143 1.49733 -1.73998 1.26515 3.01171 0.550879 2.39089 2.98462 2.19406 2.34138 -15.6407 7.21391 1.99883 8.79083 8.54446 -1.83534 51.4357 -6.69473 -3.79754 104.464 16.4011 20.5644 7.8213e-006 -4.67204e-007 -5.94915e-006 14.8193 0.11565 -0.235669 -1.32091e-005 -3.92052e-007 -3.01354 8.02894 -4.95146 0.697704 -76.3907 -8.17018 5.47143 -92.7411 24.6597 -27.9653 1.43125e-014 1.95589e-006 -9.54166e-015 -13.799 2.08884 -0.425595 1.05402e-005 -1.39984e-006 3.01009 -8.0289 -4.95146 -0.697691 178.865 13.8039 -1.64499 180 7.01508e-015 178.763 176.289 24.5212 -179.721 -1.24894e-006 -4.48345e-006 0.668677 -23.1949 70.9059 22.464 8.13649 25.2327 -3.48774 -177.039 11.1743 -0.117375 4.54188e-006 -4.6773e-006 -0.847218 -0.990292 -24.4923 0.802149 5.35018e-007 -4.00495e-006 -0.452413 20.2423 73.3524 -24.7753 -8.1365 25.2327 3.48774 
50.5764 86.5613 6.26626 0.532252 -3.09458 -1.7596 1.49729 -1.73965 1.26481 3.01172 0.548934 2.38904 2.98465 2.19211 2.33953 -15.6421 7.2201 2.01509 8.7965 8.52703 -1.81853 51.4318 -6.69052 -3.79355 104.473 16.4033 20.57 7.8213e-006 -4.67204e-007 -5.94915e-006 14.8141 0.115652 -0.236905 -1.32091e-005 -3.92052e-007 -3.01354 8.02894 -4.95146 0.697704 -76.3981 -8.17471 5.47356 -92.7289 24.6579 -27.9627 4.77083e-015 1.95589e-006 -1.27222e-014 -13.8038 2.09639 -0.423746 1.05402e-005 -1.39984e-006 3.01009 -8.0289 -4.95146 -0.697691 178.866 13.8076 -1.64747 180 7.01508e-015 178.763 176.291 24.5223 -179.722 -1.24894e-006 -4.48345e-006 0.668664 -23.197 70.9071 22.4677 8.13649 25.2327 -3.48774 -177.039 11.1799 -0.116594 4.54188e-006 -4.6773e-006 -0.84722 -0.989366 -24.4912 0.802551 5.35018e-007 -4.00495e-006 -0.452413 20.2388 73.35 -24.7725 -8.1365 25.2327 3.48774 
50.5716 86.5626 6.27759 0.532551 -3.09042 -1.75777 1.49725 -1.73935 1.26447 3.01175 0.547002 2.38721 2.98469 2.19018 2.33771 -15.6436 7.22604 2.03117 8.802 8.51005 -1.80189 51.4279 -6.68636 -3.7896 104.481 16.4055 20.5755 7.8213e-006 -4.67204e-007 -5.94915e-006 14.809 0.115655 -0.238133 -1.32091e-005 -3.92052e-007 -3.01354 8.02894 -4.95146 0.697704 -76.4053 -8.1792 5.47568 -92.717 24.656 -27.9601 7.95139e-015 1.95589e-006 -3.18055e-015 -13.8086 2.10383 -0.421931 1.05402e-005 -1.39984e-006 3.01009 -8.0289 -4.95146 -0.697691 178.867 13.8112 -1.64996 180 7.01508e-015 178.763 176.293 24.5234 -179.723 -1.24894e-006 -4.48345e-006 0.668655 -23.1991 70.9084 22.4713 8.13649 25.2327 -3.48774 -177.038 11.1855 -0.1158 4.54188e-006 -4.6773e-006 -0.847221 -0.988428 -24.4902 0.802957 5.35018e-007 -4.00495e-006 -0.452413 20.2354 73.3477 -24.7697 -8.1365 25.2327 3.48774 
